<svg class="main-svg" xmlns="http://www.w3.org/2000/svg" xmlns:xlink="http://www.w3.org/1999/xlink" width="850" height="500" style="" viewBox="0 0 850 500"><rect x="0" y="0" width="850" height="500" style="fill: rgb(255, 255, 255); fill-opacity: 1;"/><defs id="defs-d5a1fa"><g class="clips"><clipPath id="clipd5a1faxyplot" class="plotclip"><rect width="577" height="124"/></clipPath><clipPath class="axesclip" id="clipd5a1fax"><rect x="61" y="0" width="577" height="500"/></clipPath><clipPath class="axesclip" id="clipd5a1fay"><rect x="0" y="30" width="850" height="124"/></clipPath><clipPath class="axesclip" id="clipd5a1faxy"><rect x="61" y="30" width="577" height="124"/></clipPath></g><g class="gradients"><linearGradient x1="0" y1="1" x2="0" y2="0" gradientUnits="objectBoundingBox" id="gd5a1fa-cbcoloraxis"><stop offset="0%" stop-color="rgb(13, 8, 135)" stop-opacity="1"/><stop offset="11.111111%" stop-color="rgb(70, 3, 159)" stop-opacity="1"/><stop offset="22.222222%" stop-color="rgb(114, 1, 168)" stop-opacity="1"/><stop offset="33.333333%" stop-color="rgb(156, 23, 158)" stop-opacity="1"/><stop offset="44.444444%" stop-color="rgb(189, 55, 134)" stop-opacity="1"/><stop offset="55.555556%" stop-color="rgb(216, 87, 107)" stop-opacity="1"/><stop offset="66.666667%" stop-color="rgb(237, 121, 83)" stop-opacity="1"/><stop offset="77.777778%" stop-color="rgb(251, 159, 58)" stop-opacity="1"/><stop offset="88.888889%" stop-color="rgb(253, 202, 38)" stop-opacity="1"/><stop offset="100%" stop-color="rgb(240, 249, 33)" stop-opacity="1"/></linearGradient></g><g class="patterns"/></defs><g class="bglayer"/><g class="layer-below"><g class="imagelayer"/><g class="shapelayer"/></g><g class="cartesianlayer"><g class="subplot xy"><g class="layer-subplot"><g class="shapelayer"/><g class="imagelayer"/></g><g class="minor-gridlayer"><g class="x"/><g class="y"/></g><g class="gridlayer"><g class="x"><path class="xgrid crisp" transform="translate(137.28,0)" d="M0,30v124" style="stroke: rgb(255, 255, 255); stroke-opacity: 1; stroke-width: 1px;"/><path class="xgrid crisp" transform="translate(230.98,0)" d="M0,30v124" style="stroke: rgb(255, 255, 255); stroke-opacity: 1; stroke-width: 1px;"/><path class="xgrid crisp" transform="translate(324.68,0)" d="M0,30v124" style="stroke: rgb(255, 255, 255); stroke-opacity: 1; stroke-width: 1px;"/><path class="xgrid crisp" transform="translate(418.37,0)" d="M0,30v124" style="stroke: rgb(255, 255, 255); stroke-opacity: 1; stroke-width: 1px;"/><path class="xgrid crisp" transform="translate(512.0699999999999,0)" d="M0,30v124" style="stroke: rgb(255, 255, 255); stroke-opacity: 1; stroke-width: 1px;"/><path class="xgrid crisp" transform="translate(605.77,0)" d="M0,30v124" style="stroke: rgb(255, 255, 255); stroke-opacity: 1; stroke-width: 1px;"/></g><g class="y"><path class="ygrid crisp" transform="translate(0,125.78)" d="M61,0h577" style="stroke: rgb(255, 255, 255); stroke-opacity: 1; stroke-width: 1px;"/><path class="ygrid crisp" transform="translate(0,97.7)" d="M61,0h577" style="stroke: rgb(255, 255, 255); stroke-opacity: 1; stroke-width: 1px;"/><path class="ygrid crisp" transform="translate(0,69.61)" d="M61,0h577" style="stroke: rgb(255, 255, 255); stroke-opacity: 1; stroke-width: 1px;"/><path class="ygrid crisp" transform="translate(0,41.519999999999996)" d="M61,0h577" style="stroke: rgb(255, 255, 255); stroke-opacity: 1; stroke-width: 1px;"/></g></g><g class="zerolinelayer"/><g class="layer-between"><g class="shapelayer"/><g class="imagelayer"/></g><path class="xlines-below"/><path class="ylines-below"/><g class="overlines-below"/><g class="xaxislayer-below"/><g class="yaxislayer-below"/><g class="overaxes-below"/><g class="overplot"><g class="xy" transform="translate(61,30)" clip-path="url(#clipd5a1faxyplot)"><g class="scatterlayer mlayer"><g class="trace scatter tracea97c92" style="stroke-miterlimit: 2; opacity: 1;"><g class="fills"/><g class="errorbars"/><g class="lines"/><g class="points"><path class="point" transform="translate(76.28,70.37)" d="M42.43,0A42.43,42.43 0 1,1 0,-42.43A42.43,42.43 0 0,1 42.43,0Z" style="opacity: 0.7; stroke-width: 1px; fill: rgb(240, 249, 33); fill-opacity: 1; stroke: rgb(255, 255, 255); stroke-opacity: 1;"/><path class="point" transform="translate(169.98,53.15)" d="M41.99,0A41.99,41.99 0 1,1 0,-41.99A41.99,41.99 0 0,1 41.99,0Z" style="opacity: 0.7; stroke-width: 1px; fill: rgb(242, 240, 34); fill-opacity: 1; stroke: rgb(255, 255, 255); stroke-opacity: 1;"/><path class="point" transform="translate(263.68,35.34)" d="M22.18,0A22.18,22.18 0 1,1 0,-22.18A22.18,22.18 0 0,1 22.18,0Z" style="opacity: 0.7; stroke-width: 1px; fill: rgb(133, 11, 164); fill-opacity: 1; stroke: rgb(255, 255, 255); stroke-opacity: 1;"/><path class="point" transform="translate(357.37,71.26)" d="M16.1,0A16.1,16.1 0 1,1 0,-16.1A16.1,16.1 0 0,1 16.1,0Z" style="opacity: 0.7; stroke-width: 1px; fill: rgb(82, 2, 162); fill-opacity: 1; stroke: rgb(255, 255, 255); stroke-opacity: 1;"/><path class="point" transform="translate(451.07,73.63)" d="M3.95,0A3.95,3.95 0 1,1 0,-3.95A3.95,3.95 0 0,1 3.95,0Z" style="opacity: 0.7; stroke-width: 1px; fill: rgb(17, 8, 137); fill-opacity: 1; stroke: rgb(255, 255, 255); stroke-opacity: 1;"/><path class="point" transform="translate(544.77,70.79)" d="M3.03,0A3.03,3.03 0 1,1 0,-3.03A3.03,3.03 0 0,1 3.03,0Z" style="opacity: 0.7; stroke-width: 1px; fill: rgb(15, 8, 136); fill-opacity: 1; stroke: rgb(255, 255, 255); stroke-opacity: 1;"/></g><g class="text"/></g></g></g></g><g class="zerolinelayer-above"/><path class="xlines-above crisp" d="M60,154.5H638" style="fill: none; stroke-width: 1px; stroke: rgb(255, 0, 0); stroke-opacity: 1;"/><path class="ylines-above crisp" d="M60.5,30V154" style="fill: none; stroke-width: 1px; stroke: rgb(255, 0, 0); stroke-opacity: 1;"/><g class="overlines-above"/><g class="xaxislayer-above"><g class="xtick"><text text-anchor="end" x="0" y="171.8" transform="translate(137.28,0) rotate(-45,0,164.8)" style="font-family: Helvetica; font-size: 14px; fill: rgb(42, 63, 95); fill-opacity: 1; white-space: pre;">Data / Data Mining Analyst</text></g><g class="xtick"><text text-anchor="end" x="0" y="171.8" transform="translate(230.98,0) rotate(-45,0,164.8)" style="font-family: Helvetica; font-size: 14px; fill: rgb(42, 63, 95); fill-opacity: 1; white-space: pre;">Business Intelligence Analyst</text></g><g class="xtick"><text text-anchor="end" x="0" y="171.8" transform="translate(324.68,0) rotate(-45,0,164.8)" style="font-family: Helvetica; font-size: 14px; fill: rgb(42, 63, 95); fill-opacity: 1; white-space: pre;">Computer Systems Engineer / Architect</text></g><g class="xtick"><text text-anchor="end" x="0" y="171.8" transform="translate(418.37,0) rotate(-45,0,164.8)" style="font-family: Helvetica; font-size: 14px; fill: rgb(42, 63, 95); fill-opacity: 1; white-space: pre;">Business / Management Analyst</text></g><g class="xtick"><text text-anchor="end" x="0" y="171.8" transform="translate(512.0699999999999,0) rotate(-45,0,164.8)" style="font-family: Helvetica; font-size: 14px; fill: rgb(42, 63, 95); fill-opacity: 1; white-space: pre;">Clinical Analyst / Clinical Documentation and Improvement Specialist</text></g><g class="xtick"><text text-anchor="end" x="0" y="171.8" transform="translate(605.77,0) rotate(-45,0,164.8)" style="font-family: Helvetica; font-size: 14px; fill: rgb(42, 63, 95); fill-opacity: 1; white-space: pre;">Market Research Analyst</text></g></g><g class="yaxislayer-above"><g class="ytick"><text text-anchor="end" x="57.2" y="4.8999999999999995" transform="translate(0,153.87)" style="font-family: Helvetica; font-size: 14px; fill: rgb(42, 63, 95); fill-opacity: 1; white-space: pre;">0</text></g><g class="ytick"><text text-anchor="end" x="57.2" y="4.8999999999999995" style="font-family: Helvetica; font-size: 14px; fill: rgb(42, 63, 95); fill-opacity: 1; white-space: pre;" transform="translate(0,125.78)">50k</text></g><g class="ytick"><text text-anchor="end" x="57.2" y="4.8999999999999995" style="font-family: Helvetica; font-size: 14px; fill: rgb(42, 63, 95); fill-opacity: 1; white-space: pre;" transform="translate(0,97.7)">100k</text></g><g class="ytick"><text text-anchor="end" x="57.2" y="4.8999999999999995" style="font-family: Helvetica; font-size: 14px; fill: rgb(42, 63, 95); fill-opacity: 1; white-space: pre;" transform="translate(0,69.61)">150k</text></g><g class="ytick"><text text-anchor="end" x="57.2" y="4.8999999999999995" style="font-family: Helvetica; font-size: 14px; fill: rgb(42, 63, 95); fill-opacity: 1; white-space: pre;" transform="translate(0,41.519999999999996)">200k</text></g></g><g class="overaxes-above"/></g></g><g class="polarlayer"/><g class="smithlayer"/><g class="ternarylayer"/><g class="geolayer"/><g class="funnelarealayer"/><g class="pielayer"/><g class="iciclelayer"/><g class="treemaplayer"/><g class="sunburstlayer"/><g class="glimages"/><defs id="topdefs-d5a1fa"><g class="clips"/></defs><g class="layer-above"><g class="imagelayer"/><g class="shapelayer"/></g><g class="infolayer"><g class="cbcoloraxis colorbar" transform="translate(61,30)"><rect class="cbbg" x="589" y="0" width="200.9619140625" height="124" style="fill: rgb(0, 0, 0); fill-opacity: 0; stroke: rgb(68, 68, 68); stroke-opacity: 1; stroke-width: 0;"/><g class="cbfills" transform="translate(0,34)"><rect class="cbfill gradient_filled" style="fill: url('#gd5a1fa-cbcoloraxis');" x="599" y="0" width="30" height="80"/></g><g class="cblines" transform="translate(0,34)"/><g class="cbaxis crisp" transform="translate(0,-30)"><g class="ycbcoloraxistick"><text text-anchor="start" x="632.3" y="4.8999999999999995" transform="translate(0,117.46000000000001)" style="font-family: Helvetica; font-size: 14px; fill: rgb(42, 63, 95); fill-opacity: 1; white-space: pre;">10k</text></g><g class="ycbcoloraxistick"><text text-anchor="start" x="632.3" y="4.8999999999999995" style="font-family: Helvetica; font-size: 14px; fill: rgb(42, 63, 95); fill-opacity: 1; white-space: pre;" transform="translate(0,90.81)">20k</text></g><g class="ycbcoloraxistick"><text text-anchor="start" x="632.3" y="4.8999999999999995" style="font-family: Helvetica; font-size: 14px; fill: rgb(42, 63, 95); fill-opacity: 1; white-space: pre;" transform="translate(0,64.15)">30k</text></g></g><g class="cbtitleunshift" transform="translate(-61,-30)"><g class="cbtitle" transform=""><text class="ycbcoloraxistitle" x="659.54" y="55.75" text-anchor="start" style="opacity: 1; font-family: Helvetica; font-size: 17px; fill: rgb(42, 63, 95); fill-opacity: 1; white-space: pre;">Number of Job Postings</text></g></g><rect class="cboutline" x="599" y="34" width="30" height="80" style="stroke: rgb(68, 68, 68); stroke-opacity: 1; fill: none; stroke-width: 0;"/></g><g class="g-gtitle"><text class="gtitle" x="42.5" y="15" text-anchor="start" dy="0em" style="opacity: 1; font-family: Helvetica; font-size: 25px; fill: rgb(42, 63, 95); fill-opacity: 1; white-space: pre;">Salary Analysis by Lot Occupation Type (Bubble Chart)</text></g><g class="g-xtitle" transform="translate(0,-3.2447265624999773)"><text class="xtitle" x="349.5" y="499.2447265625" text-anchor="middle" style="opacity: 1; font-family: Helvetica; font-size: 17px; fill: rgb(42, 63, 95); fill-opacity: 1; white-space: pre;">Lot Occupation</text></g><g class="g-ytitle" transform="translate(8.609375,0)"><text class="ytitle" transform="rotate(-90,6.390820312499997,92)" x="6.390820312499997" y="92" text-anchor="middle" style="opacity: 1; font-family: Helvetica; font-size: 17px; fill: rgb(42, 63, 95); fill-opacity: 1; white-space: pre;">Median Salary</text></g></g></svg>