<svg class="main-svg" xmlns="http://www.w3.org/2000/svg" xmlns:xlink="http://www.w3.org/1999/xlink" width="1000" height="600" style="" viewBox="0 0 1000 600"><rect x="0" y="0" width="1000" height="600" style="fill: rgb(255, 255, 255); fill-opacity: 1;"/><defs id="defs-341168"><g class="clips"><clipPath id="clip341168xyplot" class="plotclip"><rect width="723" height="224"/></clipPath><clipPath class="axesclip" id="clip341168x"><rect x="61" y="0" width="723" height="600"/></clipPath><clipPath class="axesclip" id="clip341168y"><rect x="0" y="30" width="1000" height="224"/></clipPath><clipPath class="axesclip" id="clip341168xy"><rect x="61" y="30" width="723" height="224"/></clipPath></g><g class="gradients"><linearGradient x1="0" y1="1" x2="0" y2="0" gradientUnits="objectBoundingBox" id="g341168-cbcoloraxis"><stop offset="0%" stop-color="rgb(13, 8, 135)" stop-opacity="1"/><stop offset="11.111111%" stop-color="rgb(70, 3, 159)" stop-opacity="1"/><stop offset="22.222222%" stop-color="rgb(114, 1, 168)" stop-opacity="1"/><stop offset="33.333333%" stop-color="rgb(156, 23, 158)" stop-opacity="1"/><stop offset="44.444444%" stop-color="rgb(189, 55, 134)" stop-opacity="1"/><stop offset="55.555556%" stop-color="rgb(216, 87, 107)" stop-opacity="1"/><stop offset="66.666667%" stop-color="rgb(237, 121, 83)" stop-opacity="1"/><stop offset="77.777778%" stop-color="rgb(251, 159, 58)" stop-opacity="1"/><stop offset="88.888889%" stop-color="rgb(253, 202, 38)" stop-opacity="1"/><stop offset="100%" stop-color="rgb(240, 249, 33)" stop-opacity="1"/></linearGradient></g><g class="patterns"/></defs><g class="bglayer"/><g class="layer-below"><g class="imagelayer"/><g class="shapelayer"/></g><g class="cartesianlayer"><g class="subplot xy"><g class="layer-subplot"><g class="shapelayer"/><g class="imagelayer"/></g><g class="minor-gridlayer"><g class="x"/><g class="y"/></g><g class="gridlayer"><g class="x"><path class="xgrid crisp" transform="translate(144.57999999999998,0)" d="M0,30v224" style="stroke: rgb(255, 255, 255); stroke-opacity: 1; stroke-width: 1px;"/><path class="xgrid crisp" transform="translate(264.56,0)" d="M0,30v224" style="stroke: rgb(255, 255, 255); stroke-opacity: 1; stroke-width: 1px;"/><path class="xgrid crisp" transform="translate(384.54,0)" d="M0,30v224" style="stroke: rgb(255, 255, 255); stroke-opacity: 1; stroke-width: 1px;"/><path class="xgrid crisp" transform="translate(504.51,0)" d="M0,30v224" style="stroke: rgb(255, 255, 255); stroke-opacity: 1; stroke-width: 1px;"/><path class="xgrid crisp" transform="translate(624.49,0)" d="M0,30v224" style="stroke: rgb(255, 255, 255); stroke-opacity: 1; stroke-width: 1px;"/><path class="xgrid crisp" transform="translate(744.47,0)" d="M0,30v224" style="stroke: rgb(255, 255, 255); stroke-opacity: 1; stroke-width: 1px;"/></g><g class="y"><path class="ygrid crisp" transform="translate(0,227.01)" d="M61,0h723" style="stroke: rgb(255, 255, 255); stroke-opacity: 1; stroke-width: 1px;"/><path class="ygrid crisp" transform="translate(0,185.51)" d="M61,0h723" style="stroke: rgb(255, 255, 255); stroke-opacity: 1; stroke-width: 1px;"/><path class="ygrid crisp" transform="translate(0,144.01)" d="M61,0h723" style="stroke: rgb(255, 255, 255); stroke-opacity: 1; stroke-width: 1px;"/><path class="ygrid crisp" transform="translate(0,102.51)" d="M61,0h723" style="stroke: rgb(255, 255, 255); stroke-opacity: 1; stroke-width: 1px;"/><path class="ygrid crisp" transform="translate(0,61.010000000000005)" d="M61,0h723" style="stroke: rgb(255, 255, 255); stroke-opacity: 1; stroke-width: 1px;"/></g></g><g class="zerolinelayer"/><g class="layer-between"><g class="shapelayer"/><g class="imagelayer"/></g><path class="xlines-below"/><path class="ylines-below"/><g class="overlines-below"/><g class="xaxislayer-below"/><g class="yaxislayer-below"/><g class="overaxes-below"/><g class="overplot"><g class="xy" transform="translate(61,30)" clip-path="url(#clip341168xyplot)"><g class="scatterlayer mlayer"><g class="trace scatter traced6f8ad" style="stroke-miterlimit: 2; opacity: 1;"><g class="fills"/><g class="errorbars"/><g class="lines"/><g class="points"><path class="point" transform="translate(83.58,165.37)" d="M42.43,0A42.43,42.43 0 1,1 0,-42.43A42.43,42.43 0 0,1 42.43,0Z" style="opacity: 0.7; stroke-width: 1px; fill: rgb(240, 249, 33); fill-opacity: 1; stroke: rgb(255, 255, 255); stroke-opacity: 1;"/><path class="point" transform="translate(203.56,101.77)" d="M41.99,0A41.99,41.99 0 1,1 0,-41.99A41.99,41.99 0 0,1 41.99,0Z" style="opacity: 0.7; stroke-width: 1px; fill: rgb(242, 240, 34); fill-opacity: 1; stroke: rgb(255, 255, 255); stroke-opacity: 1;"/><path class="point" transform="translate(323.54,35.99)" d="M22.18,0A22.18,22.18 0 1,1 0,-22.18A22.18,22.18 0 0,1 22.18,0Z" style="opacity: 0.7; stroke-width: 1px; fill: rgb(133, 11, 164); fill-opacity: 1; stroke: rgb(255, 255, 255); stroke-opacity: 1;"/><path class="point" transform="translate(443.51,168.69)" d="M16.1,0A16.1,16.1 0 1,1 0,-16.1A16.1,16.1 0 0,1 16.1,0Z" style="opacity: 0.7; stroke-width: 1px; fill: rgb(82, 2, 162); fill-opacity: 1; stroke: rgb(255, 255, 255); stroke-opacity: 1;"/><path class="point" transform="translate(563.49,177.42)" d="M3.95,0A3.95,3.95 0 1,1 0,-3.95A3.95,3.95 0 0,1 3.95,0Z" style="opacity: 0.7; stroke-width: 1px; fill: rgb(17, 8, 137); fill-opacity: 1; stroke: rgb(255, 255, 255); stroke-opacity: 1;"/><path class="point" transform="translate(683.47,166.92)" d="M3.03,0A3.03,3.03 0 1,1 0,-3.03A3.03,3.03 0 0,1 3.03,0Z" style="opacity: 0.7; stroke-width: 1px; fill: rgb(15, 8, 136); fill-opacity: 1; stroke: rgb(255, 255, 255); stroke-opacity: 1;"/></g><g class="text"/></g></g></g></g><g class="zerolinelayer-above"/><path class="xlines-above crisp" d="M60,254.5H784" style="fill: none; stroke-width: 1px; stroke: rgb(255, 0, 0); stroke-opacity: 1;"/><path class="ylines-above crisp" d="M60.5,30V254" style="fill: none; stroke-width: 1px; stroke: rgb(255, 0, 0); stroke-opacity: 1;"/><g class="overlines-above"/><g class="xaxislayer-above"><g class="xtick"><text text-anchor="end" x="0" y="271.8" transform="translate(144.57999999999998,0) rotate(-45,0,264.8)" style="font-family: Helvetica; font-size: 14px; fill: rgb(42, 63, 95); fill-opacity: 1; white-space: pre;">Data / Data Mining Analyst</text></g><g class="xtick"><text text-anchor="end" x="0" y="271.8" transform="translate(264.56,0) rotate(-45,0,264.8)" style="font-family: Helvetica; font-size: 14px; fill: rgb(42, 63, 95); fill-opacity: 1; white-space: pre;">Business Intelligence Analyst</text></g><g class="xtick"><text text-anchor="end" x="0" y="271.8" transform="translate(384.54,0) rotate(-45,0,264.8)" style="font-family: Helvetica; font-size: 14px; fill: rgb(42, 63, 95); fill-opacity: 1; white-space: pre;">Computer Systems Engineer / Architect</text></g><g class="xtick"><text text-anchor="end" x="0" y="271.8" transform="translate(504.51,0) rotate(-45,0,264.8)" style="font-family: Helvetica; font-size: 14px; fill: rgb(42, 63, 95); fill-opacity: 1; white-space: pre;">Business / Management Analyst</text></g><g class="xtick"><text text-anchor="end" x="0" y="271.8" transform="translate(624.49,0) rotate(-45,0,264.8)" style="font-family: Helvetica; font-size: 14px; fill: rgb(42, 63, 95); fill-opacity: 1; white-space: pre;">Clinical Analyst / Clinical Documentation and Improvement Specialist</text></g><g class="xtick"><text text-anchor="end" x="0" y="271.8" transform="translate(744.47,0) rotate(-45,0,264.8)" style="font-family: Helvetica; font-size: 14px; fill: rgb(42, 63, 95); fill-opacity: 1; white-space: pre;">Market Research Analyst</text></g></g><g class="yaxislayer-above"><g class="ytick"><text text-anchor="end" x="57.2" y="4.8999999999999995" transform="translate(0,227.01)" style="font-family: Helvetica; font-size: 14px; fill: rgb(42, 63, 95); fill-opacity: 1; white-space: pre;">80k</text></g><g class="ytick"><text text-anchor="end" x="57.2" y="4.8999999999999995" style="font-family: Helvetica; font-size: 14px; fill: rgb(42, 63, 95); fill-opacity: 1; white-space: pre;" transform="translate(0,185.51)">100k</text></g><g class="ytick"><text text-anchor="end" x="57.2" y="4.8999999999999995" style="font-family: Helvetica; font-size: 14px; fill: rgb(42, 63, 95); fill-opacity: 1; white-space: pre;" transform="translate(0,144.01)">120k</text></g><g class="ytick"><text text-anchor="end" x="57.2" y="4.8999999999999995" style="font-family: Helvetica; font-size: 14px; fill: rgb(42, 63, 95); fill-opacity: 1; white-space: pre;" transform="translate(0,102.51)">140k</text></g><g class="ytick"><text text-anchor="end" x="57.2" y="4.8999999999999995" style="font-family: Helvetica; font-size: 14px; fill: rgb(42, 63, 95); fill-opacity: 1; white-space: pre;" transform="translate(0,61.010000000000005)">160k</text></g></g><g class="overaxes-above"/></g></g><g class="polarlayer"/><g class="smithlayer"/><g class="ternarylayer"/><g class="geolayer"/><g class="funnelarealayer"/><g class="pielayer"/><g class="iciclelayer"/><g class="treemaplayer"/><g class="sunburstlayer"/><g class="glimages"/><defs id="topdefs-341168"><g class="clips"/></defs><g class="layer-above"><g class="imagelayer"/><g class="shapelayer"/></g><g class="infolayer"><g class="cbcoloraxis colorbar" transform="translate(61,30)"><rect class="cbbg" x="737" y="0" width="201.8818359375" height="224" style="fill: rgb(0, 0, 0); fill-opacity: 0; stroke: rgb(68, 68, 68); stroke-opacity: 1; stroke-width: 0;"/><g class="cbfills" transform="translate(0,34)"><rect class="cbfill gradient_filled" style="fill: url('#g341168-cbcoloraxis');" x="747" y="0" width="30" height="180"/></g><g class="cblines" transform="translate(0,34)"/><g class="cbaxis crisp" transform="translate(0,-30)"><g class="ycbcoloraxistick"><text text-anchor="start" x="780.3" y="4.8999999999999995" transform="translate(0,184.29)" style="font-family: Helvetica; font-size: 14px; fill: rgb(42, 63, 95); fill-opacity: 1; white-space: pre;">10k</text></g><g class="ycbcoloraxistick"><text text-anchor="start" x="780.3" y="4.8999999999999995" style="font-family: Helvetica; font-size: 14px; fill: rgb(42, 63, 95); fill-opacity: 1; white-space: pre;" transform="translate(0,124.31999999999998)">20k</text></g><g class="ycbcoloraxistick"><text text-anchor="start" x="780.3" y="4.8999999999999995" style="font-family: Helvetica; font-size: 14px; fill: rgb(42, 63, 95); fill-opacity: 1; white-space: pre;" transform="translate(0,64.33999999999997)">30k</text></g></g><g class="cbtitleunshift" transform="translate(-61,-30)"><g class="cbtitle" transform=""><text class="ycbcoloraxistitle" x="808.46" y="55.75" text-anchor="start" style="opacity: 1; font-family: Helvetica; font-size: 17px; fill: rgb(42, 63, 95); fill-opacity: 1; white-space: pre;">Number of Job Postings</text></g></g><rect class="cboutline" x="747" y="34" width="30" height="180" style="stroke: rgb(68, 68, 68); stroke-opacity: 1; fill: none; stroke-width: 0;"/></g><g class="g-gtitle"><text class="gtitle" x="50" y="15" text-anchor="start" dy="0em" style="opacity: 1; font-family: Helvetica; font-size: 25px; fill: rgb(42, 63, 95); fill-opacity: 1; white-space: pre;">Salary Analysis by Lot Occupation Type (Bubble Chart)</text></g><g class="g-xtitle" transform="translate(0,-3.2447265624999773)"><text class="xtitle" x="422.5" y="599.2447265625" text-anchor="middle" style="opacity: 1; font-family: Helvetica; font-size: 17px; fill: rgb(42, 63, 95); fill-opacity: 1; white-space: pre;">Lot Occupation</text></g><g class="g-ytitle" transform="translate(8.609375,0)"><text class="ytitle" transform="rotate(-90,6.390820312499997,142)" x="6.390820312499997" y="142" text-anchor="middle" style="opacity: 1; font-family: Helvetica; font-size: 17px; fill: rgb(42, 63, 95); fill-opacity: 1; white-space: pre;">Median Salary</text></g></g></svg>